<svg width="24" height="24" viewBox="0 0 24 24" fill="none" xmlns="http://www.w3.org/2000/svg">
<path d="M7 20C6.16667 20 5.45833 19.7083 4.875 19.125C4.29167 18.5417 4 17.8333 4 17H1.5L1.95 15H4.775C5.05833 14.6833 5.39167 14.4375 5.775 14.2625C6.15833 14.0875 6.56667 14 7 14C7.43333 14 7.84167 14.0875 8.225 14.2625C8.60833 14.4375 8.94167 14.6833 9.225 15H13.4L15.5 6H6.55L6.975 4H18L17.075 8H20L23 12L22 17H20C20 17.8333 19.7083 18.5417 19.125 19.125C18.5417 19.7083 17.8333 20 17 20C16.1667 20 15.4583 19.7083 14.875 19.125C14.2917 18.5417 14 17.8333 14 17H10C10 17.8333 9.70833 18.5417 9.125 19.125C8.54167 19.7083 7.83333 20 7 20ZM15.925 13H20.75L20.85 12.475L19 10H16.625L15.925 13ZM15.5 6L13.4 15L13.45 14.825L15.5 6ZM3.5 13V10H1L4.5 5V8H7L3.5 13ZM7 18C7.28333 18 7.52083 17.9042 7.7125 17.7125C7.90417 17.5208 8 17.2833 8 17C8 16.7167 7.90417 16.4792 7.7125 16.2875C7.52083 16.0958 7.28333 16 7 16C6.71667 16 6.47917 16.0958 6.2875 16.2875C6.09583 16.4792 6 16.7167 6 17C6 17.2833 6.09583 17.5208 6.2875 17.7125C6.47917 17.9042 6.71667 18 7 18ZM17 18C17.2833 18 17.5208 17.9042 17.7125 17.7125C17.9042 17.5208 18 17.2833 18 17C18 16.7167 17.9042 16.4792 17.7125 16.2875C17.5208 16.0958 17.2833 16 17 16C16.7167 16 16.4792 16.0958 16.2875 16.2875C16.0958 16.4792 16 16.7167 16 17C16 17.2833 16.0958 17.5208 16.2875 17.7125C16.4792 17.9042 16.7167 18 17 18Z" fill="#575757"/>
</svg>
